<?xml version="1.0" encoding="utf-8"?>
<!-- Generator: Adobe Illustrator 20.1.0, SVG Export Plug-In . SVG Version: 6.00 Build 0)  -->
<svg version="1.1" id="Layer_1" xmlns="http://www.w3.org/2000/svg" xmlns:xlink="http://www.w3.org/1999/xlink" x="0px" y="0px"
	 viewBox="0 0 74 74" style="enable-background:new 0 0 74 74;" xml:space="preserve">
<style type="text/css">
	.st0{fill:#FFFFFF;}
	.st1{fill:none;stroke:#52A6DC;stroke-width:1.9515;stroke-miterlimit:10;}
</style>
<g>
	<circle class="st0" cx="37" cy="37" r="37"/>
	<g>
		<path class="st1" d="M37,25.9l6.5-6.5c2.6-2.6,6.7-2.6,9.3,0l1.9,1.9c2.6,2.6,2.6,6.7,0,9.3L44.4,40.7c-2.6,2.6-6.7,2.6-9.3,0
			l-1.9-1.9"/>
		<path class="st1" d="M37,48.1l-6.5,6.5c-2.6,2.6-6.7,2.6-9.3,0l-1.9-1.9c-2.6-2.6-2.6-6.7,0-9.3l10.2-10.2c2.6-2.6,6.7-2.6,9.3,0
			l1.9,1.9"/>
	</g>
</g>
</svg>
